<svg width="1920" height="1080" viewBox="0 0 1920 1080" xmlns="http://www.w3.org/2000/svg"><rect width="1920" height="1080" fill="#a7e2cb"/><path d="M 0,1080 C 0,1080 0,154 0,154 C -29.39564437086169,161.21562175023115 -58.79128874172338,168.43124350046227 3,163 C 64.79128874172338,157.56875649953773 217.7695105960318,139.490647748382 263,149 C 308.2304894039682,158.509352251618 245.7132463575962,195.60616550600975 224,197 C 202.2867536424038,198.39383449399025 221.37750397358337,164.08469022757896 283,146 C 344.6224960264166,127.91530977242103 448.77673774807016,126.05507358367436 451,135 C 453.22326225192984,143.94492641632564 353.5155450341359,163.69501543772364 367,153 C 380.4844549658641,142.30498456227636 507.1610821153862,101.16486466543107 526,99 C 544.8389178846138,96.83513533456893 455.84012650431913,133.64552590055214 422,158 C 388.15987349568087,182.35447409944786 409.4784118673374,194.25303173236037 503,175 C 596.5215881326626,155.74696826763963 762.2462260263314,105.34234717000636 806,108 C 849.7537739736686,110.65765282999364 771.5366840273371,166.37757958761418 780,169 C 788.4633159726629,171.62242041238582 883.6070378643203,121.14733447953684 897,105 C 910.3929621356797,88.85266552046316 842.0351645153818,107.03308249423841 854,137 C 865.9648354846182,166.9669175057616 958.2523040741523,208.7203355435094 1012,197 C 1065.7476959258477,185.2796644564906 1080.955619188009,120.08557533172392 1091,109 C 1101.044380811991,97.91442466827608 1105.9252191738112,140.9373631295949 1082,146 C 1058.0747808261888,151.0626368704051 1005.3435041167459,118.1649721498965 1039,120 C 1072.6564958832541,121.8350278501035 1192.700764359205,158.40274827081905 1286,176 C 1379.299235640795,193.59725172918095 1445.8534384464335,192.2240347668273 1421,180 C 1396.1465615535665,167.7759652331727 1279.8854818550603,144.7011126618718 1246,125 C 1212.1145181449397,105.2988873381282 1260.6046341333254,88.97151458568541 1342,109 C 1423.3953658666746,129.0284854143146 1537.6959816116375,185.41282899538655 1574,195 C 1610.3040183883625,204.58717100461345 1568.6114394201238,167.3771694327684 1538,162 C 1507.3885605798762,156.6228305672316 1487.8582607078672,183.07849327353995 1545,188 C 1602.1417392921328,192.92150672646005 1735.9555177484067,176.30885747307175 1785,154 C 1834.0444822515933,131.69114252692825 1798.319668298506,103.68607683417298 1793,102 C 1787.680331701494,100.31392316582702 1812.7658090575694,124.9468351902363 1839,138 C 1865.2341909424306,151.0531648097637 1892.6170954712152,152.52658240488185 1920,154 C 1920,154 1920,1080 1920,1080 Z" fill="#ffffff" opacity="0.08571428571428572"/><path d="M 0,1080 C 0,1080 0,308 0,308 C 38.899073082442904,282.1877805995451 77.79814616488581,256.37556119909016 89,253 C 100.20185383511419,249.62443880090981 83.70648842289967,268.68553580318445 129,283 C 174.29351157710033,297.31446419681555 281.3759001435156,306.88229558817204 320,309 C 358.6240998564844,311.11770441182796 328.7899110030381,305.7852818441274 316,296 C 303.2100889969619,286.2147181558726 307.464455844332,271.97657703531826 351,293 C 394.535544155668,314.02342296468174 477.35226561963384,370.3084100145996 525,365 C 572.6477343803662,359.6915899854004 585.1264816771327,292.78978290628334 546,286 C 506.8735183228673,279.21021709371666 416.1418076718356,332.53245836026724 426,329 C 435.8581923281644,325.46754163973276 546.3062876355253,265.08038365264775 591,270 C 635.6937123644747,274.91961634735225 614.633041786063,345.1460070291417 615,360 C 615.366958213937,374.8539929708583 637.1615452202227,334.3355882307853 690,317 C 742.8384547797773,299.6644117692147 826.7207773330465,305.5116400477174 860,303 C 893.2792226669535,300.4883599522826 875.9553454475912,289.61785157834544 921,283 C 966.0446545524088,276.38214842165456 1073.4578408765885,274.0169536389008 1074,289 C 1074.5421591234115,303.9830463610992 968.2132910460546,336.31433386605147 931,343 C 893.7867089539454,349.68566613394853 925.6889949391934,330.7257108968934 1022,334 C 1118.3110050608066,337.2742891031066 1279.0307291971721,362.7828225463747 1279,341 C 1278.9692708028279,319.2171774536253 1118.1880882721182,250.1429989176077 1134,255 C 1149.8119117278818,259.8570010823923 1342.216917714355,338.6451817831944 1402,347 C 1461.783082285645,355.3548182168056 1388.9442408704606,293.27627394961456 1408,290 C 1427.0557591295394,286.72372605038544 1538.0061188038017,342.24972241834735 1555,347 C 1571.9938811961983,351.75027758165265 1495.0312839143323,305.7248363769958 1469,284 C 1442.9687160856677,262.2751636230042 1467.8687455388688,264.85093207366947 1532,277 C 1596.1312544611312,289.14906792633053 1699.4937339301923,310.87143532832613 1762,309 C 1824.5062660698077,307.12856467167387 1846.1563187403608,281.66332661302596 1816,279 C 1785.8436812596392,276.33667338697404 1703.8809911083642,296.4752582195699 1707,295 C 1710.1190088916358,293.5247417804301 1798.3197168261818,270.4356405086943 1848,269 C 1897.6802831738182,267.5643594913057 1908.840141586909,287.78217974565285 1920,308 C 1920,308 1920,1080 1920,1080 Z" fill="#ffffff" opacity="0.17142857142857143"/><path d="M 0,1080 C 0,1080 0,462 0,462 C 51.281496582466204,459.2270833458917 102.56299316493241,456.45416669178337 150,445 C 197.4370068350676,433.54583330821663 241.02952392273656,413.4104165787582 248,413 C 254.97047607726344,412.5895834212418 225.31891114412127,431.90416699318405 246,429 C 266.6810888558787,426.09583300681595 337.6948315007784,400.97291544850583 375,421 C 412.3051684992216,441.02708455149417 415.90176285276516,506.2041712127926 413,504 C 410.09823714723484,501.7958287872074 400.69811708816076,432.2103997003239 392,423 C 383.30188291183924,413.7896002996761 375.30576879459176,464.95422998591164 369,487 C 362.69423120540824,509.04577001408836 358.078807733472,501.9726803560298 441,497 C 523.921192266528,492.0273196439702 694.3790002715202,489.15504858996906 715,478 C 735.6209997284798,466.84495141003094 606.4051911804473,447.40712528409415 627,444 C 647.5948088195527,440.59287471590585 818.0002350066908,453.21645027365406 868,474 C 917.9997649933092,494.78354972634594 847.5938687927894,523.72707362129 844,513 C 840.4061312072106,502.27292637871005 903.6242898221517,451.875255241186 937,442 C 970.3757101778483,432.124744758814 973.9089719186043,462.77190541396607 950,467 C 926.0910280813957,471.22809458603393 874.7398225034308,449.03712310294947 935,436 C 995.2601774965692,422.96287689705053 1167.1317380676726,419.07960217423636 1223,423 C 1278.8682619323274,426.92039782576364 1218.7332252258784,438.644468200105 1193,442 C 1167.2667747741216,445.355531799895 1175.9353610288135,440.34252502534355 1167,454 C 1158.0646389711865,467.65747497465645 1131.5253306588672,499.98543169852087 1200,515 C 1268.4746693411328,530.0145683014791 1431.9633163357178,527.7157481805731 1491,513 C 1550.0366836642822,498.2842518194269 1504.6214039982628,471.15157557918644 1519,452 C 1533.3785960017372,432.84842442081356 1607.551067671231,421.67794950268126 1626,431 C 1644.448932328769,440.32205049731874 1607.1743253168129,470.13662641008835 1631,481 C 1654.8256746831871,491.86337358991165 1739.751631061517,483.77554485696527 1763,467 C 1786.248368938483,450.22445514303473 1747.8191504371189,424.7611941620506 1765,430 C 1782.1808495628811,435.2388058379494 1854.9717671900064,471.1796784948325 1886,474 C 1917.0282328099936,476.8203215051675 1906.293780802855,446.52009185861925 1905,439 C 1903.706219197145,431.47990814138075 1911.8531095985725,446.7399540706904 1920,462 C 1920,462 1920,1080 1920,1080 Z" fill="#ffffff" opacity="0.2571428571428571"/><path d="M 0,1080 C 0,1080 0,617 0,617 C -16.472434443898802,613.1018086791162 -32.944868887797604,609.2036173582322 -29,602 C -25.055131112202396,594.7963826417678 -0.6929588927083898,584.2873392461868 40,582 C 80.69295889270839,579.7126607538132 137.71670445863117,585.6470256570204 177,589 C 216.28329554136883,592.3529743429796 237.82614105818368,593.1245581257313 262,596 C 286.1738589418163,598.8754418742687 312.97873130863405,603.8547418400543 317,619 C 321.02126869136595,634.1452581599457 302.25893370728,659.4564745140516 307,650 C 311.74106629272,640.5435254859484 339.9855338622461,596.3193601037394 397,598 C 454.0144661377539,599.6806398962606 539.7989308437357,647.2660850709908 561,650 C 582.2010691562643,652.7339149290092 538.8187427628114,610.6162996122973 582,615 C 625.1812572371886,619.3837003877027 754.9260981050188,670.26871647982 792,666 C 829.0739018949812,661.73128352018 773.4768648171136,602.3088344684226 782,573 C 790.5231351828864,543.6911655315774 863.1664426265271,544.4959456464898 863,570 C 862.8335573734729,595.5040543535102 789.8573646767785,645.7073829456186 796,638 C 802.1426353232215,630.2926170543814 887.4040986663589,564.6745225710354 953,565 C 1018.5959013336411,565.3254774289646 1064.526240657786,631.5945267702397 1049,638 C 1033.473759342214,644.4054732297603 956.4909387024975,590.9473703480057 1007,576 C 1057.5090612975025,561.0526296519943 1235.510004532224,584.6159918377373 1265,596 C 1294.489995467776,607.3840081622627 1175.4690431686058,606.5886623010451 1195,610 C 1214.5309568313942,613.4113376989549 1372.613822793353,621.0293589580817 1423,606 C 1473.386177206647,590.9706410419183 1416.0756656579827,553.2939018666275 1422,562 C 1427.9243343420173,570.7060981333725 1497.083514574717,625.7950335754086 1536,639 C 1574.916485425283,652.2049664245914 1583.590276043149,623.5259638317381 1587,616 C 1590.409723956851,608.4740361682619 1588.555381252687,622.1011110976393 1602,642 C 1615.444618747313,661.8988889023607 1644.188198946103,688.0695917777044 1692,671 C 1739.811801053897,653.9304082222956 1806.6918229629002,593.6205217915432 1820,573 C 1833.3081770370998,552.3794782084568 1793.0445092022958,571.448321056123 1780,587 C 1766.9554907977042,602.551678943877 1781.1301402279155,614.5861939839648 1809,619 C 1836.8698597720845,623.4138060160352 1878.4349298860423,620.2069030080177 1920,617 C 1920,617 1920,1080 1920,1080 Z" fill="#ffffff" opacity="0.34285714285714286"/><path d="M 0,1080 C 0,1080 0,771 0,771 C 25.692891639960635,773.803393387403 51.38578327992127,776.606786774806 94,783 C 136.61421672007873,789.393213225194 196.14975852027555,799.376246288179 244,786 C 291.85024147972445,772.623753711821 328.0151826389765,735.8882280724778 294,720 C 259.9848173610235,704.1117719275222 155.78951092381837,709.0708414219097 184,736 C 212.21048907618163,762.9291585780903 372.8267736657501,811.8284062398835 430,806 C 487.1732263342499,800.1715937601165 440.9033944131808,739.6155336185564 411,729 C 381.0966055868192,718.3844663814436 367.55964868152665,757.7094592858912 427,760 C 486.44035131847335,762.2905407141088 618.8580108607131,727.546629237879 645,738 C 671.1419891392869,748.453370762121 591.0083078756211,804.1040237625931 610,813 C 628.9916921243789,821.8959762374069 747.1087576368026,784.0372757117487 775,781 C 802.8912423631974,777.9627242882513 740.5566615771685,809.7468733904118 702,801 C 663.4433384228315,792.2531266095882 648.664596054524,742.9752307266047 711,748 C 773.335403945476,753.0247692733953 912.7849542047351,812.3522037031698 945,817 C 977.2150457952649,821.6477962968302 902.1955871265361,771.6159544607161 884,768 C 865.8044128734639,764.3840455392839 904.4326972891201,807.1839784539656 937,809 C 969.5673027108799,810.8160215460344 996.0736237169835,771.6481317234217 1017,745 C 1037.9263762830165,718.3518682765783 1053.2728078429454,704.2234946523474 1087,728 C 1120.7271921570546,751.7765053476526 1172.8351449112338,813.4578896671889 1229,821 C 1285.1648550887662,828.5421103328111 1345.3866125121187,781.9449466788967 1404,762 C 1462.6133874878813,742.0550533211033 1519.6184050402908,748.7623236172243 1495,759 C 1470.3815949597092,769.2376763827757 1364.139767326718,783.0057588522058 1367,796 C 1369.860232673282,808.9942411477942 1481.822525652837,821.2146409739528 1556,802 C 1630.177474347163,782.7853590260472 1666.570130061934,732.135677251983 1632,736 C 1597.429869938066,739.864322748017 1491.8969540994265,798.2426500181151 1544,806 C 1596.1030459005735,813.7573499818849 1805.8420535403598,770.8937226755568 1839,752 C 1872.1579464596402,733.1062773244432 1728.7348317391338,738.1824592796578 1709,750 C 1689.2651682608662,761.8175407203422 1793.2186195031045,780.376440205812 1849,785 C 1904.7813804968955,789.623559794188 1912.3906902484478,780.3117798970941 1920,771 C 1920,771 1920,1080 1920,1080 Z" fill="#ffffff" opacity="0.4285714285714286"/><path d="M 0,1080 C 0,1080 0,925 0,925 C -42.67897286566876,909.9167628794643 -85.35794573133752,894.8335257589285 -38,892 C 9.357945731337518,889.1664742410715 146.7528100596813,898.5826598437503 199,905 C 251.2471899403187,911.4173401562497 218.34670549261224,914.8358348660704 207,920 C 195.65329450738776,925.1641651339296 205.86036796986969,932.0740006919681 254,932 C 302.1396320301303,931.9259993080319 388.21182262790893,924.868162366057 417,912 C 445.78817737209107,899.131837633943 417.2923415184946,880.453349843804 390,872 C 362.7076584815054,863.546650156196 336.6188112981126,865.318438258727 371,886 C 405.3811887018874,906.681561741273 500.2324132890552,946.2728971212874 527,961 C 553.7675867109448,975.7271028787126 512.4515355456667,965.5899732561234 575,954 C 637.5484644543333,942.4100267438766 803.9614445282779,929.367209854219 811,934 C 818.0385554717221,938.632790145781 665.7026863412215,960.941187327 656,953 C 646.2973136587785,945.058812673 779.2278101068363,906.8680408377809 873,908 C 966.7721898931637,909.1319591622191 1021.3860732314332,949.586649321876 986,943 C 950.6139267685668,936.413350678124 825.2278969674313,882.7853618747147 838,876 C 850.7721030325687,869.2146381252853 1001.7023388988407,909.2719031792648 1094,913 C 1186.2976611011593,916.7280968207352 1219.9627474372069,884.127025408226 1182,892 C 1144.0372525627931,899.872974591774 1034.446671352332,948.2199951878315 1066,963 C 1097.553328647668,977.7800048121685 1270.2505671534648,958.9929938404481 1337,944 C 1403.7494328465352,929.0070061595519 1364.5510600338087,917.8080294503759 1336,919 C 1307.4489399661913,920.1919705496241 1289.5451927113008,933.7748883580479 1286,921 C 1282.4548072886992,908.2251116419521 1293.2681691209873,869.0924171174322 1342,877 C 1390.7318308790127,884.9075828825678 1477.3821308047493,939.8554431722232 1504,950 C 1530.6178691952507,960.1445568277768 1497.2033076600153,925.485810193675 1521,912 C 1544.7966923399847,898.514189806325 1625.8046385551893,906.201316053076 1674,915 C 1722.1953614448107,923.798683946924 1737.5781381192276,933.7089255940209 1734,927 C 1730.4218618807724,920.2910744059791 1707.8828089679,896.9629815708404 1707,901 C 1706.1171910321,905.0370184291596 1726.8906260091712,936.4391481226171 1766,945 C 1805.1093739908288,953.5608518773829 1862.5546869954144,939.2804259386915 1920,925 C 1920,925 1920,1080 1920,1080 Z" fill="#ffffff" opacity="0.5142857142857142"/><path d="M 0,1080 C 0,1080 0,1079 0,1079 C 18.934317821024656,1106.7581239800954 37.86863564204931,1134.5162479601909 82,1129 C 126.13136435795069,1123.4837520398091 195.45977525282737,1084.6931321393324 178,1069 C 160.54022474717263,1053.3068678606676 56.292263346641164,1060.71122348248 94,1075 C 131.70773665335884,1089.28877651752 311.371171360608,1110.461973930748 363,1106 C 414.628828639392,1101.538026069252 338.223051210927,1071.4408807945285 360,1078 C 381.776948789073,1084.5591192054715 501.73662379568384,1127.7745028911374 523,1132 C 544.2633762043162,1136.2254971088626 466.83045360633747,1101.4611076409221 463,1091 C 459.16954639366253,1080.5388923590779 528.9415617789665,1094.3810665451738 553,1101 C 577.0584382210335,1107.6189334548262 555.4032992777966,1107.014626178383 604,1092 C 652.5967007222034,1076.985373821617 771.4452411098471,1047.5604287412948 774,1036 C 776.5547588901529,1024.4395712587052 662.8157362828154,1030.7436588564378 665,1052 C 667.1842637171846,1073.2563411435622 785.2918137588915,1109.4649358329539 810,1112 C 834.7081862411085,1114.5350641670461 766.0170086816183,1083.396597811747 768,1063 C 769.9829913183817,1042.603402188253 842.6401515146351,1032.9486729200582 930,1029 C 1017.3598484853649,1025.0513270799418 1119.4223852598402,1026.8087105080199 1102,1048 C 1084.5776147401598,1069.1912894919801 947.6703074460036,1109.816485047862 990,1126 C 1032.3296925539964,1142.183514952138 1253.8963849561462,1133.925349300533 1293,1131 C 1332.1036150438538,1128.074650699467 1188.7441527294127,1130.4821177500057 1177,1103 C 1165.2558472705873,1075.5178822499943 1285.1270041262035,1018.1461796994438 1353,1024 C 1420.8729958737965,1029.8538203005562 1436.7478307657739,1098.9331634522193 1465,1101 C 1493.2521692342261,1103.0668365477807 1533.8816728107015,1038.1211664916782 1514,1034 C 1494.1183271892985,1029.8788335083218 1413.7254779914206,1086.5821705810677 1418,1101 C 1422.2745220085794,1115.4178294189323 1511.2164152236162,1087.5501511840514 1569,1084 C 1626.7835847763838,1080.4498488159486 1653.408861114114,1101.2172246827265 1710,1110 C 1766.591138885886,1118.7827753172735 1853.1481403199282,1115.5809500850423 1838,1101 C 1822.8518596800718,1086.4190499149577 1705.998577606173,1060.4589749771042 1693,1058 C 1680.001422393827,1055.5410250228958 1770.8575492553791,1076.5831500065417 1826,1084 C 1881.1424507446209,1091.4168499934583 1900.5712253723104,1085.2084249967293 1920,1079 C 1920,1079 1920,1080 1920,1080 Z" fill="#ffffff" opacity="0.6"/></svg>